# xmcd CD database file
#
# Track frame offsets:
#	150
#	16040
#	31190
#	46337
#	68715
#	83125
#	98870
#	113807
#	129697
#	146362
#	161197
#	189895
#
# Disc length: 2686 seconds
#
# Revision: 0
# Processed by: cddbd v1.4PL0 Copyright (c) Steve Scherf et al.
# Submitted via: CDex 1.50beta10
#
DISCID=930a7c0c
DTITLE=Cookie McGee - Right Place
DYEAR=1998
DGENRE=Blues
TTITLE0=One Way Ticket
TTITLE1=Back Playing The Blues
TTITLE2=Been Burned
TTITLE3=Your So Called Friends
TTITLE4=Right Place
TTITLE5=You're A Dog
TTITLE6=I Can't Take It
TTITLE7=Grovin' In Garland
TTITLE8=Blueswoman For Life
TTITLE9=Everlastin' Tears
TTITLE10=Trynta Get Along
TTITLE11=Bottom's Falling Out
EXTD=YEAR: 1998
EXTT0=
EXTT1=
EXTT2=
EXTT3=
EXTT4=
EXTT5=
EXTT6=
EXTT7=
EXTT8=
EXTT9=
EXTT10=
EXTT11=
PLAYORDER=
